<svg xmlns="http://www.w3.org/2000/svg" xmlns:xlink="http://www.w3.org/1999/xlink" width="22" height="18" viewBox="0 0 22 18"><defs><path id="2hpxa" d="M922.981 12724.814h5.66a1.13 1.13 0 0 1 1.132 1.13v9.037a1.13 1.13 0 0 1-1.132 1.129h-5.66a1.13 1.13 0 0 1-1.132-1.129v-9.037c0-.624.507-1.13 1.132-1.13zm0 3.39h1.132v-2.26h-1.132zm2.264 0h1.132v-2.26h-1.132zm2.264 0h1.132v-2.26h-1.132zm-4.528 3.388h1.132v-2.26h-1.132zm2.264 0h1.132v-2.26h-1.132zm2.264 0h1.132v-2.26h-1.132zm-4.528 3.388h1.132v-2.258h-1.132zm4.528 0h1.132v-2.258h-1.132zm4.529-16.944h8.986c.625 0 1.202.506 1.202 1.13v15.815s-.436 1.129-1.061 1.129h-9.127s-1.133-.505-1.133-1.129v-15.814c0-.625.507-1.13 1.133-1.13zm0 6.778h2.264v-2.26h-2.264zm0 3.39h2.264v-2.26h-2.264zm0 3.388h2.264v-2.26h-2.264zm0 3.388h2.264v-2.258h-2.264zm6.792-10.166h2.264v-2.26h-2.264zm0 3.39h2.264v-2.26h-2.264zm0 3.388h2.264v-2.26h-2.264zm0 3.388h2.264v-2.258h-2.264zm-6.792-13.555h2.264v-2.26h-2.264zm6.792 0h2.264v-2.26h-2.264zm-3.396 3.39h2.264v-2.26h-2.264zm0 3.388h2.264v-2.26h-2.264zm0 3.39h2.264v-2.26h-2.264zm0-10.168h2.264v-2.26h-2.264z"/><mask id="2hpxc" width="2" height="2" x="-1" y="-1"><path fill="#fff" d="M921 12718h22v19h-22z"/><use xlink:href="#2hpxa"/></mask><filter id="2hpxb" width="42.7" height="39.7" x="911" y="12708" filterUnits="userSpaceOnUse"><feOffset dx=".7" dy=".7" in="SourceGraphic" result="FeOffset1201Out"/><feGaussianBlur in="FeOffset1201Out" result="FeGaussianBlur1202Out" stdDeviation="0 0"/></filter></defs><g><g transform="translate(-921 -12718)"><g filter="url(#2hpxb)"><use fill="none" stroke-opacity=".25" stroke-width="0" mask="url(&quot;#2hpxc&quot;)" xlink:href="#2hpxa"/><use fill-opacity=".25" xlink:href="#2hpxa"/></g><use fill="#614261" xlink:href="#2hpxa"/><use fill="#fff" xlink:href="#2hpxa"/></g></g></svg>