<svg xmlns="http://www.w3.org/2000/svg" xmlns:xlink="http://www.w3.org/1999/xlink" width="28" height="40" viewBox="0 0 28 40"><defs><path id="dgx3a" d="M476.75 1451.748c0 5.001-4.604 10.398-6.289 15.099-2.505 6.985-2.149 11.152-7.461 11.152-5.234 0-4.957-4.186-7.46-11.182-1.68-4.69-6.29-10.03-6.29-15.069 0-7.593 6.156-13.75 13.75-13.75s13.75 6.157 13.75 13.75zm-10.06 18.728c.101-.347.22-.735.33-1.105l-7.736.966.011.04c.288.976.526 1.726.747 2.367l6.199-.776c.138-.442.286-.93.45-1.492zm.729-2.404c.133-.424.287-.874.44-1.323h-9.708c.286.84.542 1.633.77 2.385zm-1.618 5.202l-5.297.663c.647 1.416 1.23 1.562 2.496 1.562 1.476 0 2.035-.158 2.801-2.225zm5.13-13.031c1.632-2.936 3.319-5.972 3.319-8.495 0-6.203-5.046-11.25-11.25-11.25s-11.25 5.047-11.25 11.25c0 2.542 1.686 5.561 3.317 8.48.737 1.32 1.484 2.671 2.107 4.02h11.666c.619-1.342 1.36-2.688 2.09-4.005zm-7.306-15.369c0 .346-.28.625-.625.625a6.257 6.257 0 0 0-6.25 6.25.624.624 0 1 1-1.25 0c0-4.136 3.364-7.5 7.5-7.5.345 0 .625.279.625.625z"/></defs><g><g transform="translate(-449 -1438)"><use fill="#0d0d0d" xlink:href="#dgx3a"/></g></g></svg>