<svg xmlns="http://www.w3.org/2000/svg" xmlns:xlink="http://www.w3.org/1999/xlink" width="28" height="32" viewBox="0 0 28 32"><defs><path id="e75pa" d="M499 4317.999v3a2 2 0 0 1-2 2h-1.034c0 .075.03.145.021.22l-2 18A2 2 0 0 1 492 4343h-14a2 2 0 0 1-1.987-1.78l-2-18c-.01-.075.021-.145.021-.22H473a2 2 0 0 1-2-2v-3c0-1.061.834-1.908 1.878-1.976l1.224-3.658A2 2 0 0 1 476 4311h18a2 2 0 0 1 1.898 1.366l1.214 3.657c1.05.061 1.888.912 1.888 1.977zm-24-2h20l-1-3h-18zm17 25l.333-3h-14.666l.333 3zm1.556-14h-17.112l1.112 10h14.888zm.444-4h-18l.333 3h17.334zm3-5h-24v3h24z"/></defs><g><g transform="translate(-471 -4311)"><use fill="#fff" xlink:href="#e75pa"/></g></g></svg>