<svg xmlns="http://www.w3.org/2000/svg" xmlns:xlink="http://www.w3.org/1999/xlink" width="16" height="11" viewBox="0 0 16 11"><defs><path id="svz2a" d="M989 12096.247v6.499a2 2 0 0 1-2 2h-12a2 2 0 0 1-2-2v-6.499a2 2 0 0 1 2-2h12a2 2 0 0 1 2 2zm-15 5.874l3.5-2.624-3.5-2.626zm14 .625l-3.916-2.937-2.184 1.638a1.502 1.502 0 0 1-1.8 0l-2.184-1.638-3.916 2.937c0 .553.449 1 1 1h12c.551 0 1-.447 1-1zm0-5.875l-3.5 2.626 3.5 2.624zm0-.624c0-.553-.449-1-1-1h-12c-.551 0-1 .447-1 1l3.916 2.937.416.313 2.068 1.55c.175.131.382.2.6.2a.991.991 0 0 0 .6-.2z"/></defs><g><g transform="translate(-973 -12094)"><use fill="gray" xlink:href="#svz2a"/></g></g></svg>