<svg xmlns="http://www.w3.org/2000/svg" xmlns:xlink="http://www.w3.org/1999/xlink" width="39" height="32" viewBox="0 0 39 32"><defs><path id="ecpba" d="M1362.331 1536.948h-33.664c-1.487 0-2.693-1.19-2.693-2.658v-21.267c0-1.467 1.206-2.658 2.693-2.658h8.164s-.084-.159-.084-1.994 1.507-3.323 3.367-3.323h10.772c1.86 0 3.366 1.488 3.366 3.323s.085 1.994.085 1.994h7.994c1.487 0 2.693 1.19 2.693 2.658v21.267c0 1.468-1.206 2.658-2.693 2.658zm-16.771-5.352c4.462 0 8.08-3.57 8.08-7.975 0-4.405-3.618-7.975-8.08-7.975s-8.08 3.57-8.08 7.975c0 4.405 3.618 7.975 8.08 7.975z"/></defs><g><g clip-path="url(#clip-77)" transform="translate(-1326 -1505)"><use fill="#fff" xlink:href="#ecpba"/></g></g></svg>