<svg xmlns="http://www.w3.org/2000/svg" xmlns:xlink="http://www.w3.org/1999/xlink" width="24" height="21" viewBox="0 0 24 21"><defs><path id="wjb8a" d="M498.2 10129.274h-17.85a1.7 1.7 0 0 1-1.7-1.7h17.85a1.7 1.7 0 0 0 1.7-1.7v-13.6a1.7 1.7 0 0 1 1.7 1.7v13.6a1.7 1.7 0 0 1-1.7 1.7zm-2.55-2.55H477.8a1.7 1.7 0 0 1-1.7-1.7v-13.6c0-.94.761-1.7 1.7-1.7h17.85c.939 0 1.7.76 1.7 1.7v13.6a1.7 1.7 0 0 1-1.7 1.7zm0-15.3H477.8v13.6h17.85zm-13.048 10.398l2.54-4.338 2.541 2.704 3.494-5.555 3.652 9.558h-16.197l2.064-4.36zm-1.402-7.848a1.699 1.699 0 1 1 .002 3.398 1.699 1.699 0 0 1-.002-3.398z"/></defs><g><g clip-path="url(#clip-1109)" transform="translate(-476 -10109)"><use fill="#fff" xlink:href="#wjb8a"/></g></g></svg>