<svg xmlns="http://www.w3.org/2000/svg" xmlns:xlink="http://www.w3.org/1999/xlink" width="32" height="28" viewBox="0 0 32 28"><defs><path id="r021a" d="M834 4329.999v7a4 4 0 0 1-4 4h-24a4 4 0 0 1-4-4v-7c0-.178.025-.362.076-.545l4.002-15.005a2.005 2.005 0 0 1 1.922-1.45h20c.89 0 1.68.597 1.922 1.45l4.002 15.005c.05.183.076.367.076.545zm-2 0l-4.001-15.002h-19.998L804 4330v7c0 1.102.897 2 2 2h24c1.102 0 2-.898 2-2zm-5.291-12.256l3.445 11.999a1.002 1.002 0 0 1-.967 1.256h-4.568l-1.447 2.896a1.999 1.999 0 0 1-1.79 1.104h-6.765c-.758 0-1.45-.426-1.789-1.104l-1.447-2.896h-4.569c-.31 0-.603-.144-.793-.39a1.004 1.004 0 0 1-.173-.866l3.445-11.999a1 1 0 0 1 .967-.743h15.484a1 1 0 0 1 .967.743zm1.957 11.256l-2.924-11h-15.484l-2.924 11h4.047a1.99 1.99 0 0 1 1.789 1.105l1.447 2.895h6.766l1.447-2.895a1.99 1.99 0 0 1 1.789-1.105z"/></defs><g><g transform="translate(-802 -4313)"><use fill="#f39c12" xlink:href="#r021a"/></g></g></svg>