<svg xmlns="http://www.w3.org/2000/svg" xmlns:xlink="http://www.w3.org/1999/xlink" width="29" height="29" viewBox="0 0 29 29"><defs><path id="x65ha" d="M1401.45 5095.5c0 7.704-6.246 13.95-13.95 13.95-7.704 0-13.95-6.246-13.95-13.95 0-7.705 6.246-13.95 13.95-13.95 7.704 0 13.95 6.245 13.95 13.95zm-4.89-8.069a14.784 14.784 0 0 1-3.362 1.977c.63 1.743.983 3.648 1.033 5.64h5.396a12.078 12.078 0 0 0-3.067-7.617zm-9.51 20.195v-5.353c-1.29.04-2.538.242-3.716.61.918 1.878 2.173 3.495 3.669 4.74.015.002.031.002.047.003zm.9-24.254v6.255c1.42-.046 2.784-.3 4.066-.74-.937-2.206-2.322-4.099-4.02-5.512l-.046-.003zm4.909 5.207a13.836 13.836 0 0 0 3.084-1.798 12.108 12.108 0 0 0-6.448-3.253c1.395 1.393 2.544 3.109 3.364 5.051zm-5.856-5.204c-1.697 1.413-3.082 3.306-4.019 5.513 1.282.44 2.647.693 4.066.739v-6.255l-.047.003zm-1.498.153a12.108 12.108 0 0 0-6.448 3.253 13.836 13.836 0 0 0 3.084 1.798c.82-1.942 1.969-3.658 3.364-5.051zm-3.836 11.52h5.38v-4.522a14.76 14.76 0 0 1-4.404-.809 17.021 17.021 0 0 0-.976 5.332zm0 .902c.057 2.19.516 4.259 1.296 6.114a14.795 14.795 0 0 1 4.085-.692v-5.422zm.814 7.243a13.761 13.761 0 0 0-2.869 1.531 12.091 12.091 0 0 0 5.89 2.747 15.582 15.582 0 0 1-3.02-4.278zm5.514 4.43c1.496-1.245 2.75-2.862 3.669-4.74a13.912 13.912 0 0 0-3.716-.61v5.353l.047-.002zm1.498-.152a12.092 12.092 0 0 0 5.89-2.747 13.759 13.759 0 0 0-2.868-1.53 15.582 15.582 0 0 1-3.022 4.277zm3.836-11.521h-5.381v5.422c1.42.043 2.791.276 4.085.692a16.89 16.89 0 0 0 1.296-6.114zm0-.901a17.021 17.021 0 0 0-.976-5.332 14.76 14.76 0 0 1-4.405.81v4.522zm-17.958 0h5.396a17.91 17.91 0 0 1 1.033-5.64 14.782 14.782 0 0 1-3.362-1.978 12.078 12.078 0 0 0-3.067 7.618zm3.565 9.06c.98-.699 2.044-1.292 3.184-1.736a17.762 17.762 0 0 1-1.353-6.423h-5.396a12.109 12.109 0 0 0 3.565 8.16zm20.69-8.16h-5.397a17.76 17.76 0 0 1-1.353 6.424 14.648 14.648 0 0 1 3.184 1.737 12.109 12.109 0 0 0 3.565-8.16z"/></defs><g><g transform="translate(-1373 -5081)"><use fill="#0d0d0d" xlink:href="#x65ha"/></g></g></svg>